<?xml version="1.0" encoding="utf-8"?>
<!-- Generator: Adobe Illustrator 22.1.0, SVG Export Plug-In . SVG Version: 6.00 Build 0)  -->
<svg version="1.1" id="Lager_2" xmlns="http://www.w3.org/2000/svg" xmlns:xlink="http://www.w3.org/1999/xlink" x="0px" y="0px"
	 viewBox="0 0 282.6 155.9" style="enable-background:new 0 0 282.6 155.9;" xml:space="preserve">
<style type="text/css">
	.st0{fill:#d0ffe2;}
</style>
<g>
	<g>
		<path class="st0" d="M63.9,18.2l-25.5,76h0.1h35.8l2.4,7.2l-40.7,0l-11.2,33.3h7.7l8.7-25.9h38l8.7,25.9h7.7L64.1,40.7l3.7-11
			L103,134.8h7.7L71.6,18.2H63.9z M71.8,86.8H48.6l11.6-34.6L71.8,86.8z"/>
	</g>
	<g>
		<polygon class="st0" points="220.9,18.2 193.9,98.9 178.4,52.8 170.7,52.8 190,110.4 186.3,121.4 163.3,52.8 154.3,52.8
			138.8,98.9 111.7,18.2 104.1,18.2 135,110.4 131.3,121.4 96.7,18.2 89,18.2 128.1,134.8 134.5,134.8 134.5,134.8 158.8,62.3
			162.5,73.4 141.9,134.8 149.6,134.8 166.3,84.8 183.1,134.8 183.1,134.8 189.5,134.8 228.6,18.2 		"/>
	</g>
	<g>
		<polygon class="st0" points="236,18.2 196.9,134.8 204.6,134.8 243.7,18.2 		"/>
	</g>
	<g>
		<polygon class="st0" points="251.1,18.2 212,134.8 219.7,134.8 258.8,18.2 		"/>
	</g>
</g>
</svg>
